<?xml version="1.0" ?><svg id="object" viewBox="0 0 32 32" xmlns="http://www.w3.org/2000/svg"><defs><style>.cls-1{fill:#96d7ff;}.cls-2{fill:#86c3ef;}</style></defs><title/><path class="cls-1" d="M28.94,13.38a11,11,0,0,0-20.5-2.33,8,8,0,0,0,.82,16h4V24.5h-2a1,1,0,0,1-.89-.54,1,1,0,0,1,.07-1l5-7a1,1,0,0,1,1.63,0l5,7a1,1,0,0,1-.81,1.58h-2V27h4a8,8,0,0,0,5.68-13.62Z"/><path class="cls-2" d="M2.17,19.44a8,8,0,0,1,7.18-8,11,11,0,0,1,9.82-6,10.8,10.8,0,0,1,4.31.9A10.84,10.84,0,0,0,18.26,5a11,11,0,0,0-9.82,6.05A8,8,0,0,0,6.25,26.41,8,8,0,0,1,2.17,19.44Z"/></svg>